<svg xmlns="http://www.w3.org/2000/svg" xmlns:xlink="http://www.w3.org/1999/xlink" width="500" zoomAndPan="magnify" viewBox="0 0 375 374.999991" height="500" preserveAspectRatio="xMidYMid meet" version="1.0"><defs><g/><clipPath id="007ee7a8e5"><path d="M 10.03125 60.558594 L 364.78125 60.558594 L 364.78125 292.308594 L 10.03125 292.308594 Z M 10.03125 60.558594 " clip-rule="nonzero"/></clipPath><clipPath id="794874b242"><path d="M 187.496094 60.558594 C 89.484375 60.558594 10.03125 112.484375 10.03125 176.539062 C 10.03125 240.589844 89.484375 292.519531 187.496094 292.519531 C 285.503906 292.519531 364.957031 240.589844 364.957031 176.539062 C 364.957031 112.484375 285.503906 60.558594 187.496094 60.558594 Z M 187.496094 60.558594 " clip-rule="nonzero"/></clipPath><clipPath id="92104a88af"><rect x="0" width="205" y="0" height="209"/></clipPath><clipPath id="a3121fb612"><rect x="0" width="206" y="0" height="177"/></clipPath></defs><g clip-path="url(#007ee7a8e5)"><g clip-path="url(#794874b242)"><path stroke-linecap="butt" transform="matrix(0.75, 0, 0, 0.75, 10.032838, 60.556918)" fill="none" stroke-linejoin="miter" d="M 236.617675 0.00223377 C 105.935383 0.00223377 -0.0021168 69.236609 -0.0021168 154.642859 C -0.0021168 240.043901 105.935383 309.283484 236.617675 309.283484 C 367.294759 309.283484 473.232259 240.043901 473.232259 154.642859 C 473.232259 69.236609 367.294759 0.00223377 236.617675 0.00223377 Z M 236.617675 0.00223377 " stroke="#004aad" stroke-width="12" stroke-opacity="1" stroke-miterlimit="4"/></g></g><g transform="matrix(1, 0, 0, 1, 53, 81)"><g clip-path="url(#92104a88af)"><g fill="#004aad" fill-opacity="1"><g transform="translate(2.056771, 165.012065)"><g><path d="M 49.734375 0 L 74.8125 -117.65625 L 16.921875 -117.65625 L 22.984375 -146.28125 L 175.75 -146.28125 L 169.6875 -117.65625 L 111.796875 -117.65625 L 86.71875 0 Z M 49.734375 0 "/></g></g></g></g></g><g transform="matrix(1, 0, 0, 1, 130, 120)"><g clip-path="url(#a3121fb612)"><g fill="#004aad" fill-opacity="1"><g transform="translate(2.194032, 139.605939)"><g><path d="M 75.25 1.765625 C 59.082031 1.765625 45.953125 -0.859375 35.859375 -6.109375 C 25.765625 -11.359375 18.828125 -18.765625 15.046875 -28.328125 C 11.273438 -37.890625 10.742188 -49.101562 13.453125 -61.96875 C 16.285156 -74.957031 21.597656 -86.203125 29.390625 -95.703125 C 37.179688 -105.203125 47.242188 -112.578125 59.578125 -117.828125 C 71.910156 -123.085938 86.164062 -125.71875 102.34375 -125.71875 C 122.175781 -125.71875 137.253906 -122.113281 147.578125 -114.90625 C 157.910156 -107.707031 163.609375 -97.441406 164.671875 -84.109375 L 133.328125 -84.109375 C 130.960938 -89.648438 126.800781 -93.984375 120.84375 -97.109375 C 114.882812 -100.242188 107.242188 -101.8125 97.921875 -101.8125 C 88.828125 -101.8125 80.5625 -100.15625 73.125 -96.84375 C 65.6875 -93.539062 59.519531 -88.910156 54.625 -82.953125 C 49.726562 -76.992188 46.394531 -70 44.625 -61.96875 C 42.96875 -54.0625 43.347656 -47.125 45.765625 -41.15625 C 48.191406 -35.195312 52.382812 -30.535156 58.34375 -27.171875 C 64.300781 -23.816406 71.828125 -22.140625 80.921875 -22.140625 C 90.242188 -22.140625 98.5625 -23.703125 105.875 -26.828125 C 113.195312 -29.953125 119.21875 -34.347656 123.9375 -40.015625 L 155.28125 -40.015625 C 148.675781 -26.796875 138.644531 -16.523438 125.1875 -9.203125 C 111.726562 -1.890625 95.082031 1.765625 75.25 1.765625 Z M 75.25 1.765625 "/></g></g></g></g></g></svg>