<svg xmlns="http://www.w3.org/2000/svg" xmlns:xlink="http://www.w3.org/1999/xlink" width="500" zoomAndPan="magnify" viewBox="0 0 375 374.999991" height="500" preserveAspectRatio="xMidYMid meet" version="1.0"><defs><g/><clipPath id="434115b624"><path d="M 7.730469 18.019531 L 369 18.019531 L 369 345.769531 L 7.730469 345.769531 Z M 7.730469 18.019531 " clip-rule="nonzero"/></clipPath><clipPath id="7a12e8a622"><path d="M 188.335938 18.019531 C 88.589844 18.019531 7.730469 91.375 7.730469 181.863281 C 7.730469 272.355469 88.589844 345.710938 188.335938 345.710938 C 288.078125 345.710938 368.9375 272.355469 368.9375 181.863281 C 368.9375 91.375 288.078125 18.019531 188.335938 18.019531 Z M 188.335938 18.019531 " clip-rule="nonzero"/></clipPath><clipPath id="bad1f9a001"><rect x="0" width="257" y="0" height="262"/></clipPath><clipPath id="e7dd552c0b"><rect x="0" width="251" y="0" height="223"/></clipPath></defs><g clip-path="url(#434115b624)"><g clip-path="url(#7a12e8a622)"><path stroke-linecap="butt" transform="matrix(0.75, 0, 0, 0.75, 7.731746, 18.019087)" fill="none" stroke-linejoin="miter" d="M 240.805589 0.000591724 C 107.810797 0.000591724 -0.00170278 97.807884 -0.00170278 218.458925 C -0.00170278 339.115176 107.810797 436.922467 240.805589 436.922467 C 373.795173 436.922467 481.607673 339.115176 481.607673 218.458925 C 481.607673 97.807884 373.795173 0.000591724 240.805589 0.000591724 Z M 240.805589 0.000591724 " stroke="#004aad" stroke-width="12" stroke-opacity="1" stroke-miterlimit="4"/></g></g><g transform="matrix(1, 0, 0, 1, 27, 65)"><g clip-path="url(#bad1f9a001)"><g fill="#004aad" fill-opacity="1"><g transform="translate(2.718676, 206.281191)"><g><path d="M 62.28125 0 L 93.6875 -147.34375 L 21.203125 -147.34375 L 28.78125 -183.1875 L 220.09375 -183.1875 L 212.5 -147.34375 L 140.015625 -147.34375 L 108.609375 0 Z M 62.28125 0 "/></g></g></g></g></g><g transform="matrix(1, 0, 0, 1, 124, 113)"><g clip-path="url(#e7dd552c0b)"><g fill="#004aad" fill-opacity="1"><g transform="translate(2.321678, 175.305514)"><g><path d="M 94.25 2.21875 C 73.988281 2.21875 57.535156 -1.066406 44.890625 -7.640625 C 32.253906 -14.222656 23.570312 -23.5 18.84375 -35.46875 C 14.113281 -47.445312 13.453125 -61.492188 16.859375 -77.609375 C 20.398438 -93.867188 27.050781 -107.945312 36.8125 -119.84375 C 46.570312 -131.75 59.175781 -140.988281 74.625 -147.5625 C 90.070312 -154.144531 107.921875 -157.4375 128.171875 -157.4375 C 153.003906 -157.4375 171.890625 -152.925781 184.828125 -143.90625 C 197.765625 -134.894531 204.898438 -122.035156 206.234375 -105.328125 L 166.984375 -105.328125 C 164.023438 -112.273438 158.8125 -117.707031 151.34375 -121.625 C 143.875 -125.539062 134.300781 -127.5 122.625 -127.5 C 111.238281 -127.5 100.890625 -125.429688 91.578125 -121.296875 C 82.265625 -117.160156 74.539062 -111.359375 68.40625 -103.890625 C 62.269531 -96.421875 58.09375 -87.660156 55.875 -77.609375 C 53.8125 -67.703125 54.296875 -59.015625 57.328125 -51.546875 C 60.359375 -44.085938 65.601562 -38.25 73.0625 -34.03125 C 80.53125 -29.820312 89.957031 -27.71875 101.34375 -27.71875 C 113.019531 -27.71875 123.441406 -29.675781 132.609375 -33.59375 C 141.773438 -37.507812 149.3125 -43.015625 155.21875 -50.109375 L 194.46875 -50.109375 C 186.195312 -33.554688 173.632812 -20.695312 156.78125 -11.53125 C 139.925781 -2.363281 119.082031 2.21875 94.25 2.21875 Z M 94.25 2.21875 "/></g></g></g></g></g></svg>